<mxfile host="Electron" agent="Mozilla/5.0 (Windows NT 10.0; Win64; x64) AppleWebKit/537.36 (KHTML, like Gecko) draw.io/24.7.17 Chrome/128.0.6613.36 Electron/32.0.1 Safari/537.36" version="24.7.17">
  <diagram name="Страница — 1" id="I9BZNq_dTA_hbQ-je0_b">
    <mxGraphModel dx="1500" dy="1299" grid="0" gridSize="10" guides="1" tooltips="1" connect="1" arrows="1" fold="1" page="0" pageScale="1" pageWidth="827" pageHeight="1169" math="0" shadow="0">
      <root>
        <mxCell id="0" />
        <mxCell id="1" parent="0" />
        <mxCell id="NaB3OAgPGUtJVynBn59i-1" value="&lt;font style=&quot;font-size: 16px;&quot;&gt;Tenant&lt;/font&gt;" style="shape=umlActor;verticalLabelPosition=bottom;verticalAlign=top;html=1;outlineConnect=0;" vertex="1" parent="1">
          <mxGeometry x="108" y="-62" width="30" height="60" as="geometry" />
        </mxCell>
        <mxCell id="NaB3OAgPGUtJVynBn59i-2" value="&lt;font style=&quot;font-size: 16px;&quot;&gt;Core&lt;/font&gt;" style="text;html=1;align=center;verticalAlign=middle;whiteSpace=wrap;rounded=0;" vertex="1" parent="1">
          <mxGeometry x="391" y="-42" width="60" height="30" as="geometry" />
        </mxCell>
        <mxCell id="NaB3OAgPGUtJVynBn59i-5" value="" style="ellipse;html=1;shape=endState;fillColor=strokeColor;" vertex="1" parent="1">
          <mxGeometry x="108" y="40" width="30" height="30" as="geometry" />
        </mxCell>
        <mxCell id="NaB3OAgPGUtJVynBn59i-7" value="" style="endArrow=classic;html=1;rounded=0;exitX=0.5;exitY=1;exitDx=0;exitDy=0;entryX=0.5;entryY=0;entryDx=0;entryDy=0;" edge="1" parent="1" source="NaB3OAgPGUtJVynBn59i-5" target="NaB3OAgPGUtJVynBn59i-8">
          <mxGeometry width="50" height="50" relative="1" as="geometry">
            <mxPoint x="387" y="151" as="sourcePoint" />
            <mxPoint x="225" y="110" as="targetPoint" />
          </mxGeometry>
        </mxCell>
        <mxCell id="NaB3OAgPGUtJVynBn59i-8" value="Создание объявления" style="rounded=1;whiteSpace=wrap;html=1;" vertex="1" parent="1">
          <mxGeometry x="63" y="108" width="120" height="60" as="geometry" />
        </mxCell>
        <mxCell id="NaB3OAgPGUtJVynBn59i-9" value="" style="endArrow=classic;html=1;rounded=0;exitX=0.5;exitY=1;exitDx=0;exitDy=0;" edge="1" parent="1" source="NaB3OAgPGUtJVynBn59i-8" target="NaB3OAgPGUtJVynBn59i-10">
          <mxGeometry width="50" height="50" relative="1" as="geometry">
            <mxPoint x="387" y="151" as="sourcePoint" />
            <mxPoint x="225" y="200" as="targetPoint" />
          </mxGeometry>
        </mxCell>
        <mxCell id="NaB3OAgPGUtJVynBn59i-10" value="Отправка запроса на создание объявления" style="rounded=1;whiteSpace=wrap;html=1;" vertex="1" parent="1">
          <mxGeometry x="63" y="201" width="120" height="60" as="geometry" />
        </mxCell>
        <mxCell id="NaB3OAgPGUtJVynBn59i-11" value="" style="endArrow=none;html=1;rounded=0;" edge="1" parent="1">
          <mxGeometry width="50" height="50" relative="1" as="geometry">
            <mxPoint x="19" y="25" as="sourcePoint" />
            <mxPoint x="1117" y="25" as="targetPoint" />
          </mxGeometry>
        </mxCell>
        <mxCell id="NaB3OAgPGUtJVynBn59i-12" value="" style="endArrow=none;html=1;rounded=0;" edge="1" parent="1">
          <mxGeometry width="50" height="50" relative="1" as="geometry">
            <mxPoint x="223" y="1062" as="sourcePoint" />
            <mxPoint x="223" y="-83" as="targetPoint" />
          </mxGeometry>
        </mxCell>
        <mxCell id="NaB3OAgPGUtJVynBn59i-13" value="&lt;font style=&quot;font-size: 16px;&quot;&gt;Third-party service&lt;/font&gt;" style="text;html=1;align=center;verticalAlign=middle;whiteSpace=wrap;rounded=0;" vertex="1" parent="1">
          <mxGeometry x="683" y="-64" width="91" height="64" as="geometry" />
        </mxCell>
        <mxCell id="NaB3OAgPGUtJVynBn59i-14" value="" style="endArrow=none;html=1;rounded=0;" edge="1" parent="1">
          <mxGeometry width="50" height="50" relative="1" as="geometry">
            <mxPoint x="621" y="1058" as="sourcePoint" />
            <mxPoint x="621" y="-83" as="targetPoint" />
          </mxGeometry>
        </mxCell>
        <mxCell id="NaB3OAgPGUtJVynBn59i-15" value="Отправка запроса на проверку текста" style="rounded=1;whiteSpace=wrap;html=1;" vertex="1" parent="1">
          <mxGeometry x="339" y="201" width="120" height="60" as="geometry" />
        </mxCell>
        <mxCell id="NaB3OAgPGUtJVynBn59i-16" value="" style="endArrow=classic;html=1;rounded=0;exitX=1;exitY=0.5;exitDx=0;exitDy=0;entryX=0;entryY=0.5;entryDx=0;entryDy=0;" edge="1" parent="1" source="NaB3OAgPGUtJVynBn59i-10" target="NaB3OAgPGUtJVynBn59i-15">
          <mxGeometry width="50" height="50" relative="1" as="geometry">
            <mxPoint x="406" y="151" as="sourcePoint" />
            <mxPoint x="456" y="101" as="targetPoint" />
          </mxGeometry>
        </mxCell>
        <mxCell id="NaB3OAgPGUtJVynBn59i-18" value="" style="endArrow=classic;html=1;rounded=0;exitX=1;exitY=0.5;exitDx=0;exitDy=0;entryX=0;entryY=0.5;entryDx=0;entryDy=0;" edge="1" parent="1" source="NaB3OAgPGUtJVynBn59i-15" target="NaB3OAgPGUtJVynBn59i-19">
          <mxGeometry width="50" height="50" relative="1" as="geometry">
            <mxPoint x="406" y="151" as="sourcePoint" />
            <mxPoint x="706" y="226" as="targetPoint" />
          </mxGeometry>
        </mxCell>
        <mxCell id="NaB3OAgPGUtJVynBn59i-19" value="Провести модерацию" style="rounded=1;whiteSpace=wrap;html=1;" vertex="1" parent="1">
          <mxGeometry x="687" y="201" width="120" height="60" as="geometry" />
        </mxCell>
        <mxCell id="NaB3OAgPGUtJVynBn59i-20" value="" style="rhombus;whiteSpace=wrap;html=1;" vertex="1" parent="1">
          <mxGeometry x="865" y="311" width="80" height="80" as="geometry" />
        </mxCell>
        <mxCell id="NaB3OAgPGUtJVynBn59i-21" value="" style="endArrow=classic;html=1;rounded=0;exitX=0.5;exitY=1;exitDx=0;exitDy=0;entryX=0.5;entryY=0;entryDx=0;entryDy=0;edgeStyle=orthogonalEdgeStyle;" edge="1" parent="1" source="NaB3OAgPGUtJVynBn59i-19" target="NaB3OAgPGUtJVynBn59i-20">
          <mxGeometry width="50" height="50" relative="1" as="geometry">
            <mxPoint x="296" y="302" as="sourcePoint" />
            <mxPoint x="346" y="252" as="targetPoint" />
          </mxGeometry>
        </mxCell>
        <mxCell id="NaB3OAgPGUtJVynBn59i-22" value="" style="endArrow=classic;html=1;rounded=0;exitX=0;exitY=0.5;exitDx=0;exitDy=0;entryX=0.5;entryY=0;entryDx=0;entryDy=0;edgeStyle=orthogonalEdgeStyle;" edge="1" parent="1" source="NaB3OAgPGUtJVynBn59i-20" target="NaB3OAgPGUtJVynBn59i-28">
          <mxGeometry width="50" height="50" relative="1" as="geometry">
            <mxPoint x="641" y="348" as="sourcePoint" />
            <mxPoint x="691" y="351" as="targetPoint" />
          </mxGeometry>
        </mxCell>
        <mxCell id="NaB3OAgPGUtJVynBn59i-23" value="" style="endArrow=classic;html=1;rounded=0;exitX=1;exitY=0.5;exitDx=0;exitDy=0;entryX=0.5;entryY=0;entryDx=0;entryDy=0;edgeStyle=orthogonalEdgeStyle;" edge="1" parent="1" source="NaB3OAgPGUtJVynBn59i-20" target="NaB3OAgPGUtJVynBn59i-29">
          <mxGeometry width="50" height="50" relative="1" as="geometry">
            <mxPoint x="1096" y="407" as="sourcePoint" />
            <mxPoint x="1153" y="351" as="targetPoint" />
          </mxGeometry>
        </mxCell>
        <mxCell id="NaB3OAgPGUtJVynBn59i-26" value="[есть ошибки]" style="text;html=1;align=center;verticalAlign=middle;resizable=0;points=[];autosize=1;strokeColor=none;fillColor=none;" vertex="1" parent="1">
          <mxGeometry x="982" y="311" width="94" height="26" as="geometry" />
        </mxCell>
        <mxCell id="NaB3OAgPGUtJVynBn59i-27" value="[нет ошибок]" style="text;html=1;align=center;verticalAlign=middle;resizable=0;points=[];autosize=1;strokeColor=none;fillColor=none;" vertex="1" parent="1">
          <mxGeometry x="713" y="320" width="88" height="26" as="geometry" />
        </mxCell>
        <mxCell id="NaB3OAgPGUtJVynBn59i-28" value="Сообщить, что все нормально" style="rounded=1;whiteSpace=wrap;html=1;" vertex="1" parent="1">
          <mxGeometry x="681" y="444" width="120" height="60" as="geometry" />
        </mxCell>
        <mxCell id="NaB3OAgPGUtJVynBn59i-29" value="Прислать список ошибок" style="rounded=1;whiteSpace=wrap;html=1;" vertex="1" parent="1">
          <mxGeometry x="1009" y="440" width="120" height="60" as="geometry" />
        </mxCell>
        <mxCell id="NaB3OAgPGUtJVynBn59i-31" value="Обработать ошибки" style="rounded=1;whiteSpace=wrap;html=1;" vertex="1" parent="1">
          <mxGeometry x="439" y="658" width="120" height="60" as="geometry" />
        </mxCell>
        <mxCell id="NaB3OAgPGUtJVynBn59i-33" value="" style="endArrow=classic;html=1;rounded=0;exitX=0.5;exitY=1;exitDx=0;exitDy=0;entryX=0.5;entryY=0;entryDx=0;entryDy=0;edgeStyle=orthogonalEdgeStyle;" edge="1" parent="1" source="NaB3OAgPGUtJVynBn59i-29" target="NaB3OAgPGUtJVynBn59i-31">
          <mxGeometry width="50" height="50" relative="1" as="geometry">
            <mxPoint x="249" y="547" as="sourcePoint" />
            <mxPoint x="299" y="497" as="targetPoint" />
          </mxGeometry>
        </mxCell>
        <mxCell id="NaB3OAgPGUtJVynBn59i-34" value="" style="rhombus;whiteSpace=wrap;html=1;" vertex="1" parent="1">
          <mxGeometry x="361" y="742" width="80" height="80" as="geometry" />
        </mxCell>
        <mxCell id="NaB3OAgPGUtJVynBn59i-35" value="Создать объявление" style="rounded=1;whiteSpace=wrap;html=1;" vertex="1" parent="1">
          <mxGeometry x="246" y="658" width="120" height="60" as="geometry" />
        </mxCell>
        <mxCell id="NaB3OAgPGUtJVynBn59i-36" value="" style="endArrow=classic;html=1;rounded=0;exitX=0.5;exitY=1;exitDx=0;exitDy=0;entryX=0.5;entryY=0;entryDx=0;entryDy=0;edgeStyle=orthogonalEdgeStyle;" edge="1" parent="1" source="NaB3OAgPGUtJVynBn59i-28" target="NaB3OAgPGUtJVynBn59i-35">
          <mxGeometry width="50" height="50" relative="1" as="geometry">
            <mxPoint x="446" y="703" as="sourcePoint" />
            <mxPoint x="496" y="653" as="targetPoint" />
            <Array as="points">
              <mxPoint x="741" y="542" />
              <mxPoint x="306" y="542" />
            </Array>
          </mxGeometry>
        </mxCell>
        <mxCell id="NaB3OAgPGUtJVynBn59i-37" value="" style="endArrow=classic;html=1;rounded=0;exitX=0.5;exitY=1;exitDx=0;exitDy=0;entryX=1;entryY=0.5;entryDx=0;entryDy=0;edgeStyle=orthogonalEdgeStyle;" edge="1" parent="1" source="NaB3OAgPGUtJVynBn59i-31" target="NaB3OAgPGUtJVynBn59i-34">
          <mxGeometry width="50" height="50" relative="1" as="geometry">
            <mxPoint x="446" y="703" as="sourcePoint" />
            <mxPoint x="496" y="653" as="targetPoint" />
          </mxGeometry>
        </mxCell>
        <mxCell id="NaB3OAgPGUtJVynBn59i-38" value="" style="endArrow=classic;html=1;rounded=0;exitX=0.5;exitY=1;exitDx=0;exitDy=0;entryX=0;entryY=0.5;entryDx=0;entryDy=0;edgeStyle=orthogonalEdgeStyle;" edge="1" parent="1" source="NaB3OAgPGUtJVynBn59i-35" target="NaB3OAgPGUtJVynBn59i-34">
          <mxGeometry width="50" height="50" relative="1" as="geometry">
            <mxPoint x="446" y="703" as="sourcePoint" />
            <mxPoint x="496" y="653" as="targetPoint" />
          </mxGeometry>
        </mxCell>
        <mxCell id="NaB3OAgPGUtJVynBn59i-39" value="Сформировать ответ пользователю" style="rounded=1;whiteSpace=wrap;html=1;" vertex="1" parent="1">
          <mxGeometry x="341" y="863" width="120" height="60" as="geometry" />
        </mxCell>
        <mxCell id="NaB3OAgPGUtJVynBn59i-40" value="" style="endArrow=classic;html=1;rounded=0;exitX=0.5;exitY=1;exitDx=0;exitDy=0;entryX=0.5;entryY=0;entryDx=0;entryDy=0;" edge="1" parent="1" source="NaB3OAgPGUtJVynBn59i-34" target="NaB3OAgPGUtJVynBn59i-39">
          <mxGeometry width="50" height="50" relative="1" as="geometry">
            <mxPoint x="414" y="701" as="sourcePoint" />
            <mxPoint x="464" y="651" as="targetPoint" />
          </mxGeometry>
        </mxCell>
        <mxCell id="NaB3OAgPGUtJVynBn59i-42" value="Отобразить ответ" style="rounded=1;whiteSpace=wrap;html=1;" vertex="1" parent="1">
          <mxGeometry x="63" y="865" width="120" height="60" as="geometry" />
        </mxCell>
        <mxCell id="NaB3OAgPGUtJVynBn59i-45" value="" style="endArrow=classic;html=1;rounded=0;exitX=0;exitY=0.5;exitDx=0;exitDy=0;entryX=1;entryY=0.5;entryDx=0;entryDy=0;" edge="1" parent="1" source="NaB3OAgPGUtJVynBn59i-39" target="NaB3OAgPGUtJVynBn59i-42">
          <mxGeometry width="50" height="50" relative="1" as="geometry">
            <mxPoint x="414" y="844" as="sourcePoint" />
            <mxPoint x="464" y="794" as="targetPoint" />
          </mxGeometry>
        </mxCell>
        <mxCell id="NaB3OAgPGUtJVynBn59i-46" value="" style="ellipse;html=1;shape=endState;fillColor=strokeColor;" vertex="1" parent="1">
          <mxGeometry x="108" y="1005" width="30" height="30" as="geometry" />
        </mxCell>
        <mxCell id="NaB3OAgPGUtJVynBn59i-47" value="" style="endArrow=classic;html=1;rounded=0;exitX=0.5;exitY=1;exitDx=0;exitDy=0;entryX=0.5;entryY=0;entryDx=0;entryDy=0;" edge="1" parent="1" source="NaB3OAgPGUtJVynBn59i-42" target="NaB3OAgPGUtJVynBn59i-46">
          <mxGeometry width="50" height="50" relative="1" as="geometry">
            <mxPoint x="414" y="844" as="sourcePoint" />
            <mxPoint x="464" y="794" as="targetPoint" />
          </mxGeometry>
        </mxCell>
      </root>
    </mxGraphModel>
  </diagram>
</mxfile>
